<?xml version="1.0" encoding="UTF-8"?>
<svg id="Layer_2" data-name="Layer 2" xmlns="http://www.w3.org/2000/svg" viewBox="0 0 224 284">
  <defs>
    <style>
      .cls-1 {
        stroke: #231f20;
        stroke-width: .25px;
      }

      .cls-1, .cls-2 {
        fill: #231f20;
      }

      .cls-1, .cls-2, .cls-3 {
        stroke-miterlimit: 10;
      }

      .cls-2, .cls-3 {
        stroke: #fff;
        stroke-width: 6px;
      }

      .cls-3 {
        fill: #fff;
      }
    </style>
  </defs>
  <g id="Layer_1-2" data-name="Layer 1">
    <g>
      <rect class="cls-3" x="12" y="12" width="200" height="260" rx="10" ry="10"/>
      <path class="cls-2" d="M202,281H22c-10.48,0-19-8.52-19-19V22C3,11.52,11.52,3,22,3H202c10.48,0,19,8.52,19,19v240c0,10.48-8.52,19-19,19ZM22,21c-.55,0-1,.45-1,1v240c0,.55,.45,1,1,1H202c.55,0,1-.45,1-1V22c0-.55-.45-1-1-1H22Z"/>
    </g>
    <path class="cls-1" d="M180.32,139.18l-10.39-12.23-14.07-16.55,13.78-14.42,10.44-10.92,.11-.12c.19-.19,.36-.39,.53-.59,1.43-1.73,2.28-3.95,2.28-6.36,0-1.66-.4-3.23-1.12-4.6-.04-.08-.07-.15-.12-.22-.06-.12-.14-.24-.21-.36-1.75-2.88-4.93-4.81-8.55-4.81-2.87,0-5.45,1.2-7.27,3.14l-.13,.14-2.3,2.4-2.94,3.07-14.16,14.81-10.86,11.36-.33,.35-3.78,3.94-9.42,9.85V62h4.92c3.74,0,7-2.07,8.7-5.12,1.03-1.84,1.49-4.04,1.16-6.35-.71-4.96-5.17-8.53-10.18-8.53h-29.26c-5.01,0-9.47,3.57-10.18,8.53-.33,2.31,.13,4.51,1.16,6.35,1.7,3.06,4.96,5.12,8.7,5.12h4.98v55.07l-9.39-9.85-14.92-15.66-14.12-14.81-2.93-3.07-2.29-2.4-.18-.19c-1.81-1.9-4.37-3.09-7.2-3.09-3.61,0-6.78,1.93-8.52,4.81-.07,.12-.14,.24-.21,.36-.03,.05-.06,.1-.08,.16-.74,1.39-1.15,2.98-1.15,4.67v68c0,1.72,.44,3.35,1.21,4.77,.08,.14,.16,.28,.24,.42,1.75,2.88,4.93,4.81,8.55,4.81,4.05,0,7.53-2.4,9.1-5.86,.58-1.26,.9-2.66,.9-4.14v-42.97l10.82,11.31,.43,.45,6.55,6.85,19.52,20.42,3.69,3.85v17.35c-4.04,1.04-7.83,2.69-11.27,4.86-6.05,3.8-11,9.18-14.3,15.56-3.18,6.16-4.81,13.26-4.36,20.78,1.19,19.87,17.21,36.07,37.07,37.45,23.38,1.62,42.86-16.86,42.86-39.9,0-6.6-1.6-12.83-4.43-18.32-3.29-6.38-8.25-11.76-14.3-15.56-3.44-2.17-7.23-3.82-11.27-4.86v-17.25l3.7-3.87,16.47-17.22,5.09,5.98,13.57,15.96,2.88,3.39,1.6,1.89c1.83,2.35,4.68,3.86,7.89,3.86,3.62,0,6.8-1.93,8.55-4.81,.08-.14,.16-.28,.24-.42,.77-1.42,1.21-3.04,1.21-4.77,0-2.42-.86-4.63-2.28-6.36-.13-.15-.26-.3-.4-.45Zm-52.06,51.16c2.36,3.28,3.75,7.3,3.75,11.65,0,11.04-8.96,20-20,20s-20-8.96-20-20c0-4.35,1.39-8.37,3.75-11.65,3.63-5.06,9.56-8.35,16.25-8.35s12.62,3.29,16.25,8.35Z"/>
  </g>
</svg>